<svg xmlns="http://www.w3.org/2000/svg" viewBox="0 0 32.002 16.001">
  <defs>
    <style>
      .cls-1 {
        fill: #fff;
      }
    </style>
  </defs>
  <path id="barbell" class="cls-1" d="M29.023,12C28.29,12,28,13.2,28,14.667v2.667C28,18.8,28.289,20,29.023,20s1.023-1.2,1.023-2.667H32V14.667H30.045c0-1.467-.289-2.667-1.021-2.667ZM24,8c-1.333,0-1.333,1.2-1.333,2.667v4H9.334v-4C9.334,9.2,9.334,8,8,8a2.675,2.675,0,0,0-2.667,2.667V21.334A2.675,2.675,0,0,0,8,24c1.333,0,1.333-1.2,1.333-2.667v-4H22.667v4C22.667,22.8,22.667,24,24,24a2.675,2.675,0,0,0,2.667-2.667V10.667A2.675,2.675,0,0,0,24,8ZM2.977,12C3.71,12,4,13.2,4,14.667v2.667C4,18.8,3.711,20,2.977,20s-1.023-1.2-1.023-2.667H0V14.667H1.955C1.955,13.2,2.244,12,2.976,12Z" transform="translate(0.001 -8)"/>
</svg>
