<svg id="Layer_3" data-name="Layer 3" xmlns="http://www.w3.org/2000/svg" viewBox="0 0 163 276.04"><defs><style>.cls-1{fill:none;stroke:#fff;stroke-miterlimit:10;stroke-width:23px;}.cls-2,.cls-3{fill:#fff;}.cls-3{font-size:26.51px;font-family:FugazOne-Regular, Fugaz One;letter-spacing:0.08em;}.cls-4{letter-spacing:0.06em;}</style></defs><title>kettlebell-logo</title><path class="cls-1" d="M139.5,113.5h-45c-9,0-18.43-.45-27-3.42-7.05-2.44-13.17-6.94-16.27-13.88A35,35,0,0,1,48.5,81.9,47.4,47.4,0,0,1,95.9,34.5h36c5.06,0,10.24-.26,15.26.39a47.43,47.43,0,0,1,41.11,42.82c.12,1.39.18,2.79.18,4.19h0C188.5,108.08,165.68,113.5,139.5,113.5Z" transform="translate(-37 -22.95)"/><path class="cls-2" d="M131.83,162.51A54.6,54.6,0,0,1,120,166.34c-5.66,1.15-11.74,1.16-16.88-1.77a12.34,12.34,0,0,1-2.8-2.06c2.47-1.76,5.78-2.53,8.72-2.92,6.11-.8,12.39.24,18.33,1.69C128.87,161.65,130.36,162,131.83,162.51Z" transform="translate(-37 -22.95)"/><path class="cls-2" d="M200,167.5c0,36.51-26.71,67.13-62.68,75.33-10-15.47-11.16-29.52-9.5-36.79,2.29-10,34.37-26.06,43.54-3.15,3.43-6.59,15.46-50.41-26.93-54.7-16.54-23.29-65.77-32.26-106.54,2.75a76.6,76.6,0,0,1,22.46-38.55,83.59,83.59,0,0,1,41.07-20.8,86.87,86.87,0,0,1,47,3.91,82.06,82.06,0,0,1,35.49,25.86,75.1,75.1,0,0,1,15.89,40.43C199.93,163.69,200,165.59,200,167.5Z" transform="translate(-37 -22.95)"/><text class="cls-3" transform="translate(6.68 264.85)">SO<tspan class="cls-4" x="38.76" y="0">K</tspan><tspan x="57.74" y="0">OL FIT</tspan></text></svg>