<svg id="Layer_3" data-name="Layer 3" xmlns="http://www.w3.org/2000/svg" viewBox="0 0 163.01 219.88"><defs><style>.cls-1{fill:none;stroke:#000;stroke-miterlimit:10;stroke-width:23px;}</style></defs><title>kettlebell-black</title><path class="cls-1" d="M102.5,90.55h-45c-9,0-18.43-.45-27-3.42-7-2.44-13.17-6.94-16.27-13.88A35.05,35.05,0,0,1,11.5,59a47.4,47.4,0,0,1,47.4-47.4h36c5.06,0,10.24-.26,15.26.39a47.42,47.42,0,0,1,41.11,42.82c.12,1.39.18,2.79.18,4.19h0C151.5,85.13,128.68,90.55,102.5,90.55Z" transform="translate(0.01 0)"/><path d="M94.83,139.56A54.51,54.51,0,0,1,83,143.39c-5.66,1.15-11.74,1.16-16.88-1.77a12.05,12.05,0,0,1-2.8-2.06c2.47-1.76,5.78-2.53,8.72-2.92,6.11-.8,12.39.24,18.33,1.69C91.87,138.7,93.36,139.05,94.83,139.56Z" transform="translate(0.01 0)"/><path d="M163,144.55c0,36.51-26.71,67.13-62.68,75.33-10-15.47-11.16-29.52-9.5-36.79,2.29-10,34.37-26.06,43.54-3.15,3.43-6.59,15.46-50.41-26.93-54.7C90.89,102,41.66,93,.89,128A76.63,76.63,0,0,1,23.35,89.44a83.55,83.55,0,0,1,41.07-20.8,86.85,86.85,0,0,1,47,3.91,82.12,82.12,0,0,1,35.49,25.86,75.15,75.15,0,0,1,15.89,40.43C162.93,140.74,163,142.64,163,144.55Z" transform="translate(0.01 0)"/></svg>