<svg id="New_Layer" data-name="New Layer" xmlns="http://www.w3.org/2000/svg" viewBox="0 0 528.44 346.34"><defs><style>.cls-1,.cls-2{fill-rule:evenodd;}.cls-2{fill:#fdfefe;}.cls-3{fill:#fff;}.cls-4{font-size:70px;fill:#231f20;font-family:Blockletter;letter-spacing:0.07em;}.cls-5{letter-spacing:0.03em;}.cls-6{letter-spacing:0.07em;}</style></defs><title>logo_black</title><g id="bar"><path class="cls-1" d="M1114.62,605.34c-156.85-53.18-307.81,0-307.81,0L806.74,595s151-53.18,307.81,0Z" transform="translate(-695.78 -337.97)"/><path class="cls-2" d="M898.7,578.53A293.24,293.24,0,0,0,824.56,594S826.32,593.64,898.7,578.53Z" transform="translate(-695.78 -337.97)"/><path class="cls-2" d="M1020.5,577.81s1.75.37,74.24,15a293.28,293.28,0,0,0-74.24-15" transform="translate(-695.78 -337.97)"/></g><g id="plates"><g id="plate"><rect x="777.79" y="549.96" width="34.69" height="106.03" rx="10.2" transform="translate(-842.33 -65.21) rotate(-17.85)"/><path class="cls-2" d="M772.71,570.35a293.29,293.29,0,0,0,24.18,71.77S796.33,640.42,772.71,570.35Z" transform="translate(-695.78 -337.97)"/></g><g id="plate-2" data-name="plate"><rect x="743.06" y="562.78" width="34.69" height="106.03" rx="10.2" transform="translate(-847.94 -75.23) rotate(-17.85)"/><path class="cls-2" d="M738,583.17A293.22,293.22,0,0,0,762.16,655S761.61,653.24,738,583.17Z" transform="translate(-695.78 -337.97)"/></g><g id="plate-3" data-name="plate"><rect x="708.56" y="575.39" width="34.69" height="106.03" rx="10.2" transform="translate(-853.46 -85.2) rotate(-17.85)"/><path class="cls-2" d="M703.49,595.78a293.29,293.29,0,0,0,24.18,71.77S727.11,665.85,703.49,595.78Z" transform="translate(-695.78 -337.97)"/></g></g><g id="plates-2" data-name="plates"><g id="plate-4" data-name="plate"><rect x="1107.52" y="547.57" width="34.69" height="106.03" rx="10.2" transform="translate(1315.7 1179.1) rotate(-162.15)"/><path class="cls-2" d="M1147.29,568a293.47,293.47,0,0,1-24.18,71.78S1123.67,638,1147.29,568Z" transform="translate(-695.78 -337.97)"/></g><g id="plate-5" data-name="plate"><rect x="1142.25" y="560.39" width="34.69" height="106.03" rx="10.2" transform="translate(1379.55 1214.78) rotate(-162.15)"/><path class="cls-2" d="M1182,580.78a293.22,293.22,0,0,1-24.17,71.78S1158.39,650.86,1182,580.78Z" transform="translate(-695.78 -337.97)"/></g><g id="plate-6" data-name="plate"><rect x="1176.74" y="573" width="34.69" height="106.03" rx="10.2" transform="matrix(-0.95, -0.31, 0.31, -0.95, 1443.02, 1249.95)"/><path class="cls-2" d="M1216.51,593.39a293.29,293.29,0,0,1-24.18,71.77S1192.89,663.46,1216.51,593.39Z" transform="translate(-695.78 -337.97)"/></g></g><g id="Lviv"><path class="cls-1" d="M888.05,605.34s21.63,50.92,75,49.87,70.88-49.87,70.88-49.87h30.51s-20.45,79-101.39,79-105.47-79-105.47-79Z" transform="translate(-695.78 -337.97)"/><path class="cls-1" d="M857.55,615.24V680.1L873,663.44,888.4,680.1V659.42S866.86,641.42,857.55,615.24Z" transform="translate(-695.78 -337.97)"/><path class="cls-1" d="M1064.41,616.2v64.86L1049,664.41l-15.43,16.65V660.38S1055.1,642.38,1064.41,616.2Z" transform="translate(-695.78 -337.97)"/><path class="cls-3" d="M915.48,666.4a79.53,79.53,0,0,1-18.77-14.6l3-3c.62.62.94.93,1.57,1.53l6.41-6.72c-.57-.55-.85-.82-1.41-1.38l3-3a64.47,64.47,0,0,0,8.9,7.65l-2.53,3.44c-.65-.48-1-.72-1.62-1.22l-5.68,7.34c1.78,1.39,2.69,2.05,4.54,3.31l1.61-2.37c1.81,1.24,2.73,1.82,4.59,2.93Z" transform="translate(-695.78 -337.97)"/><path class="cls-3" d="M947.38,678.38c-2.93-.51-4.39-.83-7.28-1.58a90.39,90.39,0,0,1-2.85-15.16l-1.44-.51,1.48-4a63.78,63.78,0,0,0,10.05,2.94c-.36,1.67-.55,2.5-.92,4.17-.68-.15-1-.23-1.69-.4.47,3.24.76,4.87,1.46,8.11,2-2.7,2.91-4.08,4.66-6.87-.66-.11-1-.16-1.65-.29.31-1.67.46-2.51.77-4.19a63.32,63.32,0,0,0,7.74,1c-.14,1.7-.21,2.55-.34,4.25-.61,0-.91-.07-1.51-.13A92.5,92.5,0,0,1,947.38,678.38Z" transform="translate(-695.78 -337.97)"/><path class="cls-3" d="M990.34,676A80.41,80.41,0,0,1,977,678.8c-.23-1.69-.34-2.53-.58-4.22l2.08-.31c-.6-3.67-.89-5.5-1.48-9.17l-1.86.28c-.24-1.69-.35-2.54-.59-4.23a65,65,0,0,0,10.83-2.28l1.18,4.1c-.72.21-1.08.31-1.81.5,1,3.59,1.42,5.39,2.36,9,.81-.21,1.21-.32,2-.55C989.63,673.54,989.86,674.36,990.34,676Z" transform="translate(-695.78 -337.97)"/><path class="cls-3" d="M1024.39,658.3c-2.42,2-3.67,2.93-6.21,4.69a85.29,85.29,0,0,1-13.49-7.68l-1.35.76-2.05-3.74a64.81,64.81,0,0,0,9.05-5.84l2.56,3.42-1.47,1.07c2.8,1.73,4.24,2.56,7.21,4.1-.71-3.3-1.11-4.92-2-8.12-.54.46-.81.68-1.36,1.13l-2.68-3.33a65.68,65.68,0,0,0,6.19-5.56l3,3c-.46.46-.69.69-1.16,1.14A94.45,94.45,0,0,1,1024.39,658.3Z" transform="translate(-695.78 -337.97)"/></g><path class="cls-1" d="M762.47,395.7a35,35,0,0,0-1.09,4.19,41.9,41.9,0,0,0-.86,10.71c.05,6.81.14,7.42,2.38,15.13.29,1,.1,1-3.9-1a101.79,101.79,0,0,1-24.7-17.57l-4.95-4.71-.34,1.76c-.43,2.38.14,10.38,1,14.85a59.86,59.86,0,0,0,24,37.13c1.71,1.19,3.28,2.33,3.47,2.52.53.38-4.8-.76-8-1.81a52.86,52.86,0,0,1-5.19-2.14,11,11,0,0,0-3-1.19c-.38.33,1.23,4.66,3,8.19A52,52,0,0,0,754.1,475c2,2,3.28,3.61,2.85,3.47-1.81-.52-7.76-1.33-8-1.09-.47.52,5.86,4.76,10.1,6.76a86.78,86.78,0,0,0,9.75,3.8c5.76,1.86,16.61,4.53,18.47,4.53s1.05.8-1.67,1.33c-4.76.95-10.66,2.38-10.94,2.66-.43.43,3.76,5.05,7.47,8.24a124.51,124.51,0,0,0,14.23,10l1.62,1-2,1c-1.1.57-2,1.19-2,1.43,0,1,3.81,5,7,7.62a57.62,57.62,0,0,0,8,5.09l4.47,2.33-1.47,1.19-1.43,1.24,4.14,2.47a67.84,67.84,0,0,0,8,4c10.9,4.19,15.8,4.38,30.6,1.29,5.52-1.14,10-2,9.9-1.86s-3.62,2.76-7.8,5.76-7.62,5.62-7.62,5.86c-.05.47,4.52,2.47,8.95,3.85a48.62,48.62,0,0,0,12,2.29c3,.14,3.24.47,2,2.76l-.72,1.38,2,.52c5.52,1.52,17,2.14,23.42,1.24l2.76-.38-.33,1.95-.34,2,4.72-.29c7.56-.38,17.37-1.19,19.56-1.61,1.71-.29,2-.24,1.81.33-.48,1.24-9.43,15-16.42,25.37-3.81,5.61-7.29,10.76-7.71,11.42-.77,1.14-.72,1.29.42,2.86a16,16,0,0,0,6.29,5.23,22.79,22.79,0,0,0,10.9,2.29l2.38-.24L917,617l-2.62,3.09,1.52,1.71a23.88,23.88,0,0,0,9.14,6.1,38.54,38.54,0,0,0,6.29,1c3.47.24,4,.15,6.28-1,1.38-.67,2.62-1.24,2.71-1.24a10.64,10.64,0,0,1-1.14,2.95l-1.43,3,2.76,1.57a51.45,51.45,0,0,0,12.71,5,41.69,41.69,0,0,0,17.61-.71c4-1.19,11.9-4.76,12.42-5.62a7.46,7.46,0,0,0-.95-3.09,9.62,9.62,0,0,1-1.05-2.86c.1-.14,1.15.33,2.34,1a8.35,8.35,0,0,0,4.71,1.24,26.37,26.37,0,0,0,10.8-2.29c2.53-1.14,7.67-5.61,7.67-6.57a23.19,23.19,0,0,0-2.72-3.76,17.34,17.34,0,0,1-2-2.71c1.61,1.43,9.52.24,13.94-2.14,2.19-1.24,6.52-5.43,6.52-6.38,0-.24-3.71-6-8.28-12.71-9.57-14.18-16.66-25.32-16.32-25.65a65.47,65.47,0,0,1,7.75.52c10.67,1,18.28,1.34,18.28.81a9.84,9.84,0,0,0-.48-1.76,3,3,0,0,1-.33-1.48,45.35,45.35,0,0,1,5.71.34,70.91,70.91,0,0,0,18.66-.95c3.57-.77,3.76-1,2.9-3.05-.52-1.24-.57-1.71-.14-1.76a66.87,66.87,0,0,0,13.9-2.43c3.62-1.05,9.76-3.66,9.76-4.14a12,12,0,0,0-2.53-2c-3.37-2.29-13.66-9.71-13.51-9.81s4.47.86,9.85,2c12.18,2.62,17.18,2.81,24.42,1,6.18-1.66,18.42-7.52,18.42-8.85,0-.19-.53-.67-1.19-1s-1.19-.76-1.19-1a12.21,12.21,0,0,1,2.76-1.62,51.1,51.1,0,0,0,13.66-9.9c3.47-3.81,3.47-3.52.24-5.66l-1.1-.72,2.67-1.52a78.31,78.31,0,0,0,16-12.38l5-5-1.9-.57c-1-.29-4.19-1.05-7-1.67s-5.14-1.24-5.14-1.43,1-.47,2.29-.66a164.34,164.34,0,0,0,19.42-5.05c7-2.47,14.23-6.38,16.56-8.95,1-1.19,1.19-1.14-3.9-.33l-3.9.62,4.18-4.33a69,69,0,0,0,6.52-7.9c2.34-3.53,5.48-10.43,5.48-12,0-.77-.19-.72-2.24.28a50.66,50.66,0,0,1-10.47,3.67c-1.29.28-2.71.61-3.24.8s.86-1,3.05-2.61a77.86,77.86,0,0,0,13.42-12.76c5.57-7.23,9.81-17.37,11.42-27.27.48-3.1.72-13.28.29-13.71a9.3,9.3,0,0,0-2.52,2.28c-5.24,5.57-17.18,14.57-24.18,18.14-6.47,3.38-7.57,3.81-7.14,2.9,1.47-3.42,2.62-9.8,2.66-15.13s-1-13.43-1.9-14.9c-.24-.33-2.24,1.33-5.57,4.57-8.28,8.14-18,15.23-30.27,22.18a72,72,0,0,1-6.47,3.47,28.49,28.49,0,0,1,1.81-3.8c1-2,1.76-3.67,1.57-3.67a30.17,30.17,0,0,0-3.48,2.33c-11,8.19-33.89,18.42-47.69,21.42a217.22,217.22,0,0,1-25.13,3.33l-6.81.48-3.19,2.57c-1.71,1.43-4.61,3.62-6.42,4.85-3,2.15-3.29,2.24-3,1.19.14-.66.43-2.14.62-3.33l.33-2.14-3.28,3.09c-7.86,7.52-18.8,15.09-25.37,17.61-4.76,1.86-10.43,3.62-10.66,3.29-.1-.1-1-1.29-1.95-2.67a27,27,0,0,0-9.24-8.09c-3.9-1.81-9.85-2.66-16.51-2.38-11,.48-16,3.19-22.42,12l-.95,1.38-5-1.57c-2.72-.86-6.24-2.19-7.86-2.91-5.47-2.47-15.65-9.85-21.94-15.89l-3.95-3.76v1.61a14.09,14.09,0,0,0,.43,3.19l.48,1.53-1.43-.81c-.81-.48-3.71-2.62-6.47-4.76-5.53-4.29-4.86-4.05-14-4.67a199.85,199.85,0,0,1-21.66-2.9C839.86,440,817.16,430,805,421.26c-1.95-1.43-3.66-2.47-3.76-2.33a18.4,18.4,0,0,0,1.72,3.76l1.95,3.62-2.81-1.43a141,141,0,0,1-33.65-23.94C765.33,397.84,762.62,395.51,762.47,395.7Zm13.95,23.66c3,2.19,7.85,5.47,10.9,7.33,5.76,3.52,18.18,9.85,22.08,11.28,1.24.47,2.19.9,2.1,1-.53.57-24.71-6.76-32.61-9.86-1.9-.76-3.57-1.38-3.71-1.38a17.29,17.29,0,0,0-.09,4.24c.09,2.33,0,4.14-.15,4-.66-.39-2.76-6.38-3.47-9.86-.67-3.19-1.1-10.8-.57-10.8C771,415.36,773.47,417.17,776.42,419.36Zm374.3.47a40.84,40.84,0,0,1-3,13.38l-1.33,2.85.09-3.9a20,20,0,0,0-.23-4.14c-.15-.19-1.34.14-2.62.71-6.28,2.67-31.75,10.43-32.37,9.86-.09-.15,1.48-1,3.53-1.81a160.58,160.58,0,0,0,30.17-17.42c3.38-2.48,5.48-3.76,5.67-3.43A13.85,13.85,0,0,1,1150.72,419.83ZM751.91,431.4a152.59,152.59,0,0,0,20.7,8.23c2.76.81,10.14,3.29,16.42,5.48s13.14,4.57,15.23,5.28c6.19,2,5.67,2.05-6.42.14A224.79,224.79,0,0,1,759,440.78c-3.19-1.15-5.9-2.1-6-2.1a6.29,6.29,0,0,0,.43,2.48,19.19,19.19,0,0,1,.53,2.61c-.53.48-10.29-15.23-10.33-16.66,0-.23.9.2,2,.86S749.57,430.21,751.91,431.4Zm424.37-1.14a95,95,0,0,1-8.09,12.7l-1,1.19.67-2.61a10.16,10.16,0,0,0,.52-2.76,26.83,26.83,0,0,0-4.66,1.47,206.59,206.59,0,0,1-30.89,8.62c-5.52,1.09-18.61,3.19-19.71,3.09a63.94,63.94,0,0,1,6.43-2.38c3.81-1.33,10.52-3.66,14.9-5.24s9.61-3.28,11.52-3.8a136,136,0,0,0,22.37-8.71c3.95-1.95,7.56-3.86,8.09-4.24s1-.67,1.09-.57A13,13,0,0,1,1176.28,430.26ZM826.63,444.39c12.19,4.19,32.94,8.47,48.55,10.05l5.71.57,3.33,3.14c8.71,8.23,21.52,15.8,34.46,20.32,2.77.95,5.19,1.91,5.38,2,.48.43-8.47-.29-12.13-.91A103.49,103.49,0,0,1,901.36,477c-.71-.24-.52.14.71,1.52.91,1,2.34,2.57,3.1,3.43l1.43,1.62-3.57-2a94.58,94.58,0,0,1-22.09-17c-3.38-3.52-4.43-4.05-10.76-5.33-14.66-2.95-34.46-9.28-43.55-13.95C822.78,443.25,822.78,443.06,826.63,444.39Zm268.21.76c-11.95,5.62-29.7,11.28-44.74,14.24a32.74,32.74,0,0,0-5.43,1.52,72.62,72.62,0,0,0-7.61,6.66A92.82,92.82,0,0,1,1017.5,482l-2.86,1.52,3-3a34.26,34.26,0,0,0,3-3.33,26.55,26.55,0,0,0-5.14,1,62.68,62.68,0,0,1-15.47,2.29h-3l3.85-1.33c13.76-4.76,26.8-12.24,35.27-20.23l4.19-3.95,7.57-.81a242.09,242.09,0,0,0,40.5-7.9c3.43-1,6.72-2.05,7.38-2.34C1098.74,442.77,1098,443.68,1094.84,445.15Zm-122.47,25c3.81,1.81,6.33,4.71,9,10.19,3.1,6.42,3.29,5.95-3,9.8a38.8,38.8,0,0,1-5.38,3,31.18,31.18,0,0,1,2.19-4.28,18.73,18.73,0,0,0,1.86-4c-.14,0-2.19.95-4.52,2.14a30.13,30.13,0,0,1-4.86,2.14,21.8,21.8,0,0,1-3.81-1.52l-3.28-1.52-3.09,1.52a17.09,17.09,0,0,1-3.67,1.52,28.93,28.93,0,0,1-5-2.14,23.62,23.62,0,0,0-4.38-1.81,48.24,48.24,0,0,0,2.19,4.33c1.19,2.19,2,3.91,1.77,3.86s-2.72-1.57-5.53-3.28c-3.09-1.91-5.09-3.38-5.09-3.86,0-1.29,2.71-7.43,4.28-9.71,4.86-7,8.76-8.52,21.42-8C968.9,468.67,969.71,468.81,972.37,470.14Zm-8.61,23a8,8,0,0,1,3.66,6.09c0,1.81-3.85,12.23-6,16.33l-.72,1.33-1.52-3.28c-2.52-5.57-5.24-13-5.24-14.43,0-1.9,2.57-5.71,4.43-6.56A5.7,5.7,0,0,1,963.76,493.18Z" transform="translate(-695.78 -337.97)"/><text class="cls-4" transform="translate(117.59 58.91)">SO<tspan class="cls-5" x="80.02" y="0">K</tspan><tspan class="cls-6" x="117.74" y="0">OL FIT</tspan></text></svg>