<svg xmlns="http://www.w3.org/2000/svg" viewBox="0 0 33.619 32">
  <defs>
    <style>
      .cls-1 {
        fill: #232323;
      }
    </style>
  </defs>
  <path id="trophy" class="cls-1" d="M25.5,1a.5.5,0,0,0,0-1H8.5a.5.5,0,0,0,0,1Zm0,1H6.5C3.217,2,1.687,3.166.981,4.144A4.9,4.9,0,0,0,.525,8.658C1.407,11.3,4.371,14.483,6.193,15.9a.5.5,0,1,0,.614-.791c-1.674-1.3-4.525-4.342-5.332-6.763a3.93,3.93,0,0,1,.318-3.612C2.608,3.6,4.235,3,6.5,3H8v9.5c0,6.726,6.673,10.6,8.036,11.322A.5.5,0,0,0,16,24v2.5a.5.5,0,0,0,1,0V24a.5.5,0,0,0-.033-.164C18.481,23.124,26,19.25,26,12.5V3h1.5c2.265,0,3.892.6,4.707,1.729a3.932,3.932,0,0,1,.318,3.613c-.63,1.891-3.769,5.553-5.332,6.763a.5.5,0,0,0,.614.791c1.732-1.342,4.961-5.119,5.668-7.237a4.9,4.9,0,0,0-.456-4.514C32.313,3.166,30.783,2,27.5,2h-2ZM25,12.5c0,6.093-7.152,9.8-8.486,10.443C15.286,22.278,9,18.576,9,12.5V3H25v9.5ZM11,28a1.956,1.956,0,0,0-2,2v1.5a.5.5,0,0,0,.5.5h14a.5.5,0,0,0,.5-.5V30.075A2.017,2.017,0,0,0,22,28Zm12,2.075V31H10V30a.957.957,0,0,1,1-1H22A1.017,1.017,0,0,1,23,30.075Z" transform="translate(-0.19)"/>
</svg>
