<svg xmlns="http://www.w3.org/2000/svg" viewBox="0 0 27.729 30.563">
  <defs>
    <style>
      .cls-1 {
        fill: #232323;
      }
    </style>
  </defs>
  <path id="stopwatch" class="cls-1" d="M11.8,10.792c-.715.44,1.915,6.787,2.557,7.821a1.93,1.93,0,0,0,3.285-2.026c-.635-1.037-5.128-6.237-5.842-5.8Zm-.536-6.949a14.356,14.356,0,0,1,9.468,0,.707.707,0,0,0,.915-.978c-.226-.576-.443-1.139-.531-1.368A2.2,2.2,0,0,0,19.832.433a17.143,17.143,0,0,0-7.666,0A2.2,2.2,0,0,0,10.881,1.5c-.088.229-.307.792-.531,1.368a.707.707,0,0,0,.915.978ZM30.557,5.1c-.307-.368-.634-.728-.981-1.075s-.706-.672-1.072-.981a1.149,1.149,0,0,0-1.421.082c-.454.456-2.637,2.635-2.637,2.635A14.817,14.817,0,0,1,26.294,7.3,14.688,14.688,0,0,1,27.84,9.153s2.181-2.179,2.635-2.635A1.14,1.14,0,0,0,30.557,5.1ZM16,4.64A12.961,12.961,0,1,0,28.96,17.6,12.96,12.96,0,0,0,16,4.64Zm0,22.722a9.76,9.76,0,1,1,9.762-9.76A9.761,9.761,0,0,1,16,27.362Z" transform="translate(-3.038 0.001)"/>
</svg>
